<?xml version="1.0" encoding="utf-8"?>
<!-- Generator: Adobe Illustrator 25.3.1, SVG Export Plug-In . SVG Version: 6.00 Build 0)  -->
<svg version="1.1" xmlns="http://www.w3.org/2000/svg" xmlns:xlink="http://www.w3.org/1999/xlink" x="0px" y="0px"
	 viewBox="0 0 500 500" style="enable-background:new 0 0 500 500;" xml:space="preserve">
<style type="text/css">
	.st0{fill:#EBEBEB;}
	.st1{fill:#FAFAFA;}
	.st2{fill:#E0E0E0;}
	.st3{opacity:0.8;}
	.st4{fill:#F5F5F5;}
	.st5{fill:#F0F0F0;}
	.st6{fill:#E6E6E6;}
	.st7{display:none;}
	.st8{display:inline;}
	.st9{fill:#407BFF;}
	.st10{opacity:0.9;fill:#FFFFFF;}
	.st11{fill:#263238;}
	.st12{opacity:0.6;fill:#FFFFFF;}
	.st13{opacity:0.3;}
	.st14{fill:#FFB573;}
	.st15{opacity:0.2;}
	.st16{fill:#FFFFFF;}
	.st17{fill:#ED893E;}
	.st18{opacity:0.3;fill:#263238;}
	.st19{opacity:0.1;fill:#FFFFFF;}
	.st20{opacity:0.2;fill:#FFFFFF;}
	.st21{opacity:0.5;fill:#407BFF;}
	.st22{opacity:0.6;fill:#407BFF;}
	.st23{opacity:0.1;}
	.st24{opacity:0.7;fill:#FFFFFF;}
</style>
<g id="Background_Complete">
	<g>
		<rect y="382.4" class="st0" width="500" height="0.2"/>
		<rect x="394.4" y="393.9" class="st0" width="50.9" height="0.2"/>
		<rect x="52.5" y="390.9" class="st0" width="47.2" height="0.2"/>
		<rect x="378.8" y="389.2" class="st0" width="19.2" height="0.2"/>
		<rect x="317.1" y="395.8" class="st0" width="14.1" height="0.2"/>
		<rect x="272.8" y="395.8" class="st0" width="35.4" height="0.2"/>
		<rect x="195.2" y="391.6" class="st0" width="57" height="0.2"/>
		<path class="st0" d="M237,337.8H43.9c-3.1,0-5.7-2.6-5.7-5.7V60.7c0-3.1,2.6-5.7,5.7-5.7H237c3.1,0,5.7,2.6,5.7,5.7v271.4
			C242.7,335.2,240.2,337.8,237,337.8z M43.9,55.2c-3,0-5.5,2.4-5.5,5.5v271.4c0,3,2.4,5.5,5.5,5.5H237c3,0,5.5-2.4,5.5-5.5V60.7
			c0-3-2.4-5.5-5.5-5.5H43.9z"/>
		<path class="st0" d="M453.3,337.8H260.2c-3.1,0-5.7-2.6-5.7-5.7V60.7c0-3.1,2.6-5.7,5.7-5.7h193.1c3.1,0,5.7,2.6,5.7,5.7v271.4
			C459,335.2,456.5,337.8,453.3,337.8z M260.2,55.2c-3,0-5.5,2.4-5.5,5.5v271.4c0,3,2.4,5.5,5.5,5.5h193.1c3,0,5.5-2.4,5.5-5.5V60.7
			c0-3-2.4-5.5-5.5-5.5H260.2z"/>
	</g>
	<g>
		<g>
			<g>
				<rect x="288.6" y="85.7" class="st0" width="101.8" height="296.7"/>
				
					<rect x="197.1" y="190" transform="matrix(-1.836970e-16 1 -1 -1.836970e-16 573.5043 -105.439)" class="st1" width="284.7" height="88.1"/>
			</g>
			<g>
				<rect x="183.7" y="85.7" class="st0" width="101.8" height="296.7"/>
				
					<rect x="285.5" y="86.8" transform="matrix(-1 -1.224647e-16 1.224647e-16 -1 574.0904 468.065)" class="st2" width="3.1" height="294.4"/>
				
					<rect x="92.3" y="190" transform="matrix(-1.836970e-16 1 -1 -1.836970e-16 468.6512 -0.5859)" class="st1" width="284.7" height="88.1"/>
			</g>
			<path class="st2" d="M436.9,83.4H137.2c-0.7,0-1.3-0.6-1.3-1.3l0,0c0-0.7,0.6-1.3,1.3-1.3h299.7c0.7,0,1.3,0.6,1.3,1.3l0,0
				C438.2,82.8,437.6,83.4,436.9,83.4z"/>
			
				<rect x="336.6" y="50.5" transform="matrix(-1.836970e-16 1 -1 -1.836970e-16 433.9718 -244.9715)" class="st2" width="5.7" height="88.1"/>
			
				<rect x="334.7" y="52.4" transform="matrix(-1.836970e-16 1 -1 -1.836970e-16 435.9163 -243.0271)" class="st2" width="9.6" height="88.1"/>
			
				<rect x="224.2" y="58.1" transform="matrix(-1.836970e-16 1 -1 -1.836970e-16 336.7299 -132.5072)" class="st2" width="20.9" height="88.1"/>
			<g class="st3">
				<rect x="375.2" y="74.6" class="st4" width="28.2" height="304.2"/>
				<rect x="382.7" y="74.6" class="st5" width="13.3" height="304.2"/>
				<rect x="390.4" y="74.6" class="st4" width="28.2" height="304.2"/>
				<rect x="397.8" y="74.6" class="st5" width="13.3" height="304.2"/>
				<rect x="404.5" y="74.6" class="st4" width="28.2" height="304.2"/>
			</g>
			<g class="st3">
				<rect x="140.5" y="74.6" class="st4" width="40.9" height="304.2"/>
				<rect x="151.3" y="74.6" class="st5" width="19.3" height="304.2"/>
				<rect x="162.5" y="74.6" class="st4" width="40.9" height="304.2"/>
				<rect x="173.3" y="74.6" class="st5" width="19.3" height="304.2"/>
				<rect x="182.9" y="74.6" class="st4" width="40.9" height="304.2"/>
			</g>
		</g>
		<g>
			<rect x="55.1" y="105.7" class="st5" width="66" height="148.7"/>
			
				<rect x="121.1" y="105.7" transform="matrix(-1 -1.224647e-16 1.224647e-16 -1 244.2835 360.1356)" class="st6" width="2.1" height="148.7"/>
			
				<rect x="19.8" y="153.1" transform="matrix(-1.836970e-16 1 -1 -1.836970e-16 268.1548 91.9803)" class="st1" width="136.7" height="54"/>
		</g>
		<g>
			<path class="st4" d="M125.3,328.1H57.5c-3.1,0-5.6-2.5-5.6-5.6l0,0c0-3.1,2.5-5.6,5.6-5.6h67.8c3.1,0,5.6,2.5,5.6,5.6l0,0
				C130.9,325.5,128.4,328.1,125.3,328.1z"/>
			<polygon class="st6" points="73.8,328.1 62.7,328.1 50,382.4 61.1,382.4 			"/>
			<polygon class="st6" points="96,328.1 84.9,328.1 78.6,382.4 89.8,382.4 			"/>
			<polygon class="st6" points="109,328.1 120.1,328.1 132.7,382.4 121.6,382.4 			"/>
		</g>
	</g>
</g>
<g id="Background_Simple" class="st7">
	<g class="st8">
		<path class="st9" d="M417.3,245.3c4.2-36.1-53.7-129.3-105-157.1C245.7,52.3,164,75.5,132.1,151c-29.6,70.2,13.5,136,84.2,153.5
			C279.3,320,414.3,288.9,417.3,245.3z"/>
		<path class="st10" d="M417.3,245.3c4.2-36.1-53.7-129.3-105-157.1C245.7,52.3,164,75.5,132.1,151c-29.6,70.2,13.5,136,84.2,153.5
			C279.3,320,414.3,288.9,417.3,245.3z"/>
	</g>
</g>
<g id="Shadow_1_">
	<ellipse id="_x3C_Path_x3E__340_" class="st4" cx="250" cy="416.2" rx="193.9" ry="11.3"/>
</g>
<g id="Character_1_">
	<g>
		<g>
			<path class="st11" d="M314.6,307.6h-85.3c-1.6,0-2.9-1.3-2.9-2.9v-3.4c0-1.6,1.3-2.9,2.9-2.9h85.3c1.6,0,2.9,1.3,2.9,2.9v3.4
				C317.5,306.3,316.2,307.6,314.6,307.6z"/>
			<g>
				<polygon class="st9" points="313.8,410.2 317.5,410.2 313.2,307.6 308,307.6 				"/>
				<polygon class="st12" points="313.8,410.2 317.5,410.2 313.2,307.6 308,307.6 				"/>
			</g>
			<g>
				<polygon class="st9" points="279.3,410.2 275.6,410.2 279.9,307.6 285.1,307.6 				"/>
				<polygon class="st12" points="279.3,410.2 275.6,410.2 279.9,307.6 285.1,307.6 				"/>
			</g>
			<g>
				<polygon class="st9" points="264.5,410.2 268.2,410.2 263.9,307.6 258.7,307.6 				"/>
				<polygon class="st12" points="264.5,410.2 268.2,410.2 263.9,307.6 258.7,307.6 				"/>
			</g>
			<g>
				<polygon class="st9" points="230.1,410.2 226.3,410.2 230.6,307.6 235.8,307.6 				"/>
				<polygon class="st12" points="230.1,410.2 226.3,410.2 230.6,307.6 235.8,307.6 				"/>
			</g>
			<g class="st13">
				<polygon class="st9" points="313.2,307.6 308,307.6 308.3,311.9 313.4,311.9 				"/>
				<polygon class="st9" points="279.7,311.9 284.8,311.9 285.1,307.6 279.9,307.6 				"/>
				<polygon class="st9" points="258.7,307.6 259,311.9 264.1,311.9 263.9,307.6 				"/>
				<polygon class="st9" points="230.4,311.9 235.6,311.9 235.8,307.6 230.6,307.6 				"/>
			</g>
		</g>
		<g>
			<g>
				<g>
					<g>
						<g>
							<polygon class="st14" points="262.1,395.2 253.6,399.7 240.3,381.6 248.8,377.1 							"/>
							<path class="st11" d="M250.6,396.9l8.8-6.1c0.3-0.2,0.7-0.2,1,0.1l5.3,6.7c0.5,0.7,0.3,1.9-0.4,2.4c-3.1,2.1-4.5,2.8-8.6,5.2
								c-2.5,1.5-8.5,5-12.2,6.6c-3.6,1.6-5.2-2.1-3.7-3.1c3.4-2.4,7.8-7.1,8.8-10.4C249.7,397.7,250.1,397.2,250.6,396.9z"/>
							<g>
								<polygon class="st15" points="248.8,377.1 240.3,381.6 246.7,390.3 255,385.6 								"/>
							</g>
							<g>
								<path class="st9" d="M269.2,270.5c0,0-65.7-2-66,25.4c-0.3,39.5,37.1,91.3,37.1,91.3l14.6-9.7c0,0-25.7-37.7-25.9-68.5
									c19.4-5.5,65-2,70.9-18.1c4.8-13.1,2.3-20.4,2.3-20.4H269.2z"/>
								<path class="st15" d="M269.2,270.5c0,0-65.7-2-66,25.4c-0.3,39.5,37.1,91.3,37.1,91.3l14.6-9.7c0,0-25.7-37.7-25.9-68.5
									c19.4-5.5,65-2,70.9-18.1c4.8-13.1,2.3-20.4,2.3-20.4H269.2z"/>
							</g>
							<polygon class="st11" points="259,380 241.5,390.7 236.1,385.1 255.2,373 							"/>
							<path class="st9" d="M248.7,400.2c0.7-0.5,1.4-1.2,1.9-1.7c0.1-0.1,0.1-0.2,0-0.2c0-0.1-0.1-0.1-0.2-0.1
								c-0.4,0-3.7,0-4.4,1.1c-0.2,0.2-0.2,0.5-0.1,0.8c0.2,0.5,0.5,0.8,0.9,0.8C247.5,400.9,248.1,400.6,248.7,400.2z M249.9,398.5
								c-1.2,1.3-2.3,1.9-2.9,1.8c-0.3,0-0.4-0.2-0.6-0.6c-0.1-0.2-0.1-0.3,0-0.4C246.9,398.8,248.6,398.6,249.9,398.5z"/>
							<path class="st9" d="M250.6,398.5C250.6,398.5,250.6,398.4,250.6,398.5c0.1-0.1,0.1-0.2,0.1-0.3c-0.1-0.1-1.5-2.5-2.8-2.7
								c-0.4-0.1-0.7,0-1,0.3c-0.3,0.3-0.4,0.7-0.3,1c0.4,1,2.7,1.8,3.8,1.7C250.5,398.5,250.6,398.5,250.6,398.5z M247.3,396
								c0.2-0.1,0.3-0.1,0.5-0.1c0.8,0.1,1.8,1.4,2.3,2.1c-1.1-0.1-2.7-0.8-3-1.5C247,396.5,247,396.3,247.3,396
								C247.2,396.1,247.3,396.1,247.3,396z"/>
						</g>
						<g>
							<polygon class="st14" points="246.4,406.2 236.9,405.7 235.4,383.3 244.9,383.8 							"/>
							<path class="st11" d="M236.7,404.1l10.8-0.3c0.4,0,0.7,0.3,0.7,0.6l0.8,8.5c0.1,0.9-0.7,1.7-1.6,1.8c-3.7,0.1-5.5-0.1-10.3,0
								c-2.9,0.1-8.6,0.5-12.6,0c-3.9-0.5-3.4-4.4-1.6-4.6c4.1-0.3,9.6-3.2,12.3-5.4C235.6,404.4,236.1,404.1,236.7,404.1z"/>
							<path class="st9" d="M233.4,405.9c0.9,0,1.9-0.2,2.5-0.4c0.1,0,0.1-0.1,0.2-0.2c0-0.1,0-0.2-0.1-0.2c-0.3-0.2-3.1-2-4.2-1.5
								c-0.3,0.1-0.4,0.3-0.5,0.6c-0.1,0.5,0,0.9,0.3,1.2C231.9,405.8,232.6,405.9,233.4,405.9z M235.3,405.2c-1.7,0.4-3,0.4-3.4,0
								c-0.2-0.2-0.3-0.4-0.2-0.8c0-0.2,0.1-0.3,0.2-0.3C232.5,403.7,234.2,404.5,235.3,405.2z"/>
							<path class="st9" d="M235.9,405.5c0,0,0.1,0,0.1,0c0.1,0,0.1-0.1,0.1-0.2c0-0.1,0.1-2.9-0.9-3.8c-0.3-0.2-0.6-0.3-1-0.3
								c-0.4,0.1-0.7,0.3-0.8,0.7c-0.2,1.1,1.3,3,2.3,3.5C235.8,405.5,235.8,405.5,235.9,405.5z M234.4,401.6c0.2,0,0.3,0.1,0.5,0.2
								c0.6,0.5,0.7,2.1,0.7,3c-0.9-0.7-1.9-2.2-1.7-2.9c0-0.1,0.1-0.3,0.4-0.3C234.4,401.6,234.4,401.6,234.4,401.6z"/>
							<g>
								<polygon class="st15" points="244.9,383.8 235.4,383.3 236.3,396.1 245.7,396.1 								"/>
							</g>
							<path class="st9" d="M292.6,270.5c0,0-68.8,6.5-66.3,27.2c3.6,29.9,5.4,94.2,5.4,94.2l17.5,0.7c0,0,7.4-58.1,3.6-88.6
								c17.8,0,61.4,1.3,65.4-9.4c3.5-9.5,2.3-24,2.3-24H292.6z"/>
							<polygon class="st11" points="251.2,393.7 230.1,392.6 229.4,383.5 252.4,385.1 							"/>
						</g>
						<g>
							<path class="st14" d="M277.3,209.8c-0.1,1.7-0.3,3.1-0.5,4.7c-0.2,1.5-0.4,3-0.6,4.6c-0.5,3-1.1,6-1.8,9.1
								c-1.5,6-3.2,12.1-6.6,18.2c-0.9,1.5-1.8,3.1-3.1,4.6c-1.2,1.5-2.8,3.1-4.5,4.2c-3.5,2.4-7.4,3.5-11.1,3.7
								c-3.7,0.3-7.1-0.2-10.3-1c-1.6-0.4-3.2-0.9-4.7-1.5c-0.8-0.3-1.5-0.6-2.2-1c-0.8-0.3-1.4-0.7-2.2-1.2l2.6-6.7l1.9,0.2l2,0.2
								c1.3,0.1,2.7,0.2,4,0.2c2.6,0,5.1-0.2,7.2-0.8c2.1-0.6,3.9-1.5,5.1-2.6c0.6-0.6,1.1-1.1,1.7-1.9c0.6-0.8,1.1-1.8,1.6-2.8
								c1-2.1,1.9-4.6,2.6-7.1c0.8-2.5,1.4-5.2,1.9-7.9c0.6-2.7,1-5.4,1.5-8.2l0.6-4.1c0.2-1.4,0.4-2.8,0.5-4L277.3,209.8z"/>
							<g>
								<path class="st11" d="M277.4,201.7c-7-6.8-15.7-2.8-19.2,9.9c-3.5,12.7-4,20.9-4,20.9l22.3,4.6
									C280.5,224.9,284.6,208.6,277.4,201.7z"/>
							</g>
							<path class="st13" d="M270.2,215.6c1.6-1.4,6.1,5,8.9,12.9c-0.8,3-1.7,5.9-2.6,8.6l-13.4-2.8
								C264.2,226.4,266.6,218.8,270.2,215.6z"/>
							<path class="st14" d="M230.9,244.5l-5-1.9l-0.2,10.6c0,0,8.4,3.6,10.1-0.5l-0.6-2.6C234.7,247.8,233.1,245.7,230.9,244.5z"/>
							<polygon class="st14" points="220,242.9 217,251.8 225.7,253.2 225.9,242.6 							"/>
							<path class="st11" d="M227.5,250c-0.2,0-0.4-0.1-0.5-0.3l-8.9-17.2c-0.1-0.3,0-0.6,0.2-0.8c0.3-0.1,0.6,0,0.8,0.2l8.9,17.2
								c0.1,0.3,0,0.6-0.2,0.8C227.7,250,227.6,250,227.5,250z"/>
						</g>
						<path class="st11" d="M276.5,194.8l10.7-3l13.7-0.6c4.3-0.2,8.2,2.5,9.5,6.6c2.6,8,5,19.5,6.8,29.5c2,11.2,3,28,3.2,43.3
							h-51.2c-1.2-31.8-5.2-50.7-7-61.1c-0.7-4.2,1.4-8.4,5.3-10.2L276.5,194.8z"/>
						<path class="st13" d="M317.2,227.2c-1.4-7.8-3.2-16.7-5.1-24c-9.1-1.5-13.6,18.5-10.8,28.4c2.7,9.9,17.2,3.9,17.2,3.9
							C318,232.6,317.6,229.7,317.2,227.2z"/>
						<path class="st11" d="M285.4,171c2.2,5.4,0.9,15.3-3.5,12.5C277.6,180.7,284.1,167.7,285.4,171z"/>
						<path class="st14" d="M283,174.5l-4.1,6.3l-5.6,8.6c0.4,0.2,1.2,1.6,1.7,2.6c1,2.1,1.9,3.6-2.5,6.6c-0.9,0.6-1.5,1.8-1.3,2.9
							c0.3,1.3,1.6,2.7,6.3,1.8c5.5-1,9.1-3.8,11.8-6.6c1.6-1.6,1.2-2.8-0.3-4.4C284.7,187.7,283.4,180.4,283,174.5z"/>
						<path class="st15" d="M274.6,187.3l3.5-6.2c0.1,0.2,0.2,0.3,0.2,0.5c0.3,0.7,0.5,1.5,0.7,2.4c0.6,2.7-1.5,6.6-3.8,8.5
							c-0.1-0.2-0.2-0.4-0.3-0.5c-0.4-0.9-1.2-2.1-1.6-2.5c0,0-0.1-0.1-0.1-0.1L274.6,187.3z"/>
						<path class="st11" d="M253.8,167c-1.3,2.9,3.3,11.2,8.5,7.8C267.5,171.5,256.1,161.8,253.8,167z"/>
						<path class="st16" d="M279,205.1c-0.1,0-0.3-0.1-0.3-0.2c-0.4-2.5-2-4-3.8-5.9c-2.3-2.3-4.9-4.9-5.8-9.9
							c0-0.2,0.1-0.3,0.2-0.3c0.2,0,0.3,0.1,0.3,0.2c0.8,4.9,3.4,7.4,5.6,9.6c1.8,1.8,3.6,3.5,4,6.2
							C279.3,204.9,279.2,205,279,205.1C279,205.1,279,205.1,279,205.1z"/>
						<path class="st14" d="M281.1,164.1c2,9.1,3.6,14.3,0.3,20c-4.9,8.7-17.1,7.5-21.7-0.8c-4.2-7.5-6.7-21.1,1.1-26.9
							C268.5,150.6,279.2,155,281.1,164.1z"/>
						<path class="st11" d="M283.8,170.3c-3.1,4.4-11.3-3.7-10.6-9.2c-8.1,4.6-16.9,10.8-22.3,5.6c-6.2-6-4.5-14.6,2.8-15.4
							c-1.3,2.5,6,3.6,9.9-0.3c6.5-6.5,16.9-5.1,16.7,0.1C285.2,149.2,290.7,160.6,283.8,170.3z"/>
						<path class="st11" d="M279.3,152.7c1.9-1.4,0.6-6.6-3.8-8.1C279.7,145.2,284.1,148.3,279.3,152.7z"/>
						<path class="st14" d="M286.7,169.9c0.1,2.3-0.7,4.4-1.9,5.7c-1.7,2-4.4,0.4-5-2.1c-0.6-2.3,0.2-5.8,2.4-6.9
							C284.5,165.4,286.6,167.3,286.7,169.9z"/>
						<path class="st11" d="M268.1,171.4c0.2,0.7,0.1,1.5-0.4,1.6c-0.5,0.2-1.1-0.3-1.3-1c-0.2-0.7-0.1-1.5,0.4-1.6
							C267.3,170.2,267.9,170.7,268.1,171.4z"/>
						<path class="st11" d="M259.9,174.4c0.2,0.7,0.1,1.5-0.4,1.6c-0.5,0.2-1.1-0.3-1.3-1c-0.2-0.7-0.1-1.5,0.4-1.6
							C259.1,173.2,259.7,173.7,259.9,174.4z"/>
						<path class="st17" d="M262.7,174c0,0,0.1,4.1-0.8,6.5c1.5,0.5,3.1-0.7,3.1-0.7L262.7,174z"/>
						<path class="st11" d="M267.1,183.8c2.9-1,3.9-3.3,3.9-3.5c0-0.1,0-0.2-0.1-0.3c-0.1,0-0.2,0-0.3,0.1c0,0-1.1,2.7-4.5,3.4
							c-0.1,0-0.2,0.1-0.2,0.3c0,0.1,0.1,0.2,0.3,0.2C266.6,184,266.9,183.9,267.1,183.8z"/>
						<path class="st11" d="M268.9,168.2c0.1,0,0.1-0.1,0.2-0.2c0.1-0.2,0.1-0.5-0.1-0.6c-2.1-1.3-4-0.5-4.1-0.4
							c-0.2,0.1-0.3,0.4-0.2,0.6c0.1,0.2,0.4,0.3,0.6,0.2c0.1,0,1.6-0.7,3.2,0.4C268.6,168.3,268.7,168.3,268.9,168.2z"/>
						<path class="st11" d="M258.3,169.7c0-0.1,0-0.2,0-0.2c-0.1-0.2-0.4-0.3-0.6-0.2c-2.3,1-2.7,3-2.7,3.1
							c-0.1,0.2,0.1,0.5,0.4,0.5c0.2,0,0.5-0.1,0.5-0.4c0-0.1,0.3-1.7,2.1-2.4C258.2,170,258.3,169.8,258.3,169.7z"/>
						<g>
							<path class="st14" d="M308.7,198c1,1.6,1.8,3.1,2.6,4.6c0.8,1.5,1.6,3.1,2.4,4.6c1.6,3.1,3,6.3,4.4,9.6
								c1.3,3.3,2.6,6.6,3.6,10.1c1,3.5,1.9,7.2,2.3,11.3c0.2,2.1,0.2,4.2-0.2,6.7c-0.2,1.1-0.6,2.7-1.3,4.2
								c-0.7,1.5-1.8,2.9-3.1,3.9c-1.2,1.1-2.6,1.8-3.9,2.3c-1.3,0.5-2.5,0.8-3.7,1c-2.3,0.4-4.4,0.3-6.4,0.2
								c-2-0.2-3.9-0.5-5.7-0.9c-1.8-0.4-3.6-0.9-5.3-1.5c-3.4-1.1-6.6-2.5-9.9-4.2l2.5-6.7c6.2,1.2,12.9,2.3,18.5,1.9
								c1.4-0.1,2.7-0.3,3.6-0.6c1-0.3,1.5-0.7,1.5-0.9c0-0.1-0.1,0-0.1-0.1c0-0.1,0-0.1,0-0.6c0.1-0.9,0-2.1-0.2-3.4
								c-0.4-2.6-1.2-5.5-2.2-8.4c-1-2.9-2.2-5.8-3.5-8.7c-1.3-2.9-2.7-5.8-4.1-8.7c-0.7-1.4-1.5-2.9-2.2-4.3l-2.3-4.2L308.7,198z"
								/>
							<g>
								<path class="st11" d="M304,191.3c-9.7-1.5-14.4,6.8-9.9,19.2c4.5,12.4,8.8,19.3,8.8,19.3l20.8-9.1
									C320,208.5,313.9,192.8,304,191.3z"/>
							</g>
							<path class="st14" d="M281.8,242.4l-4.5,1.3l6.3,9c0,0,9.4-3.4,7.5-7.4l-2.4-1.3C286.8,242.8,284.2,241.6,281.8,242.4z"/>
							<polygon class="st14" points="273.4,249.9 277.9,254.4 283.7,252.7 277.4,243.7 							"/>
						</g>
					</g>
				</g>
			</g>
		</g>
		<g>
			<ellipse class="st16" cx="283.2" cy="171" rx="1.4" ry="1.7"/>
			<polygon class="st16" points="284.4,175.6 283.5,175.6 283,171.6 284.6,171.2 			"/>
			<path class="st16" d="M290.1,251.2c-3,0-5.7-0.4-7.3-1.9c-1.2-1-1.7-2.6-1.7-4.5c0-4.8,1-8.7,1.9-12.2c1.4-5.4,2.5-9.8-0.8-15.1
				c-5.3-8.4-3.7-20.2,0-27.6c2.9-5.7,1.9-11.9,1.5-14.3c0-0.3-0.1-0.5-0.1-0.7c0-0.2,0.1-0.3,0.3-0.3c0.2,0,0.3,0.1,0.3,0.3
				c0,0.2,0,0.4,0.1,0.7c0.4,2.4,1.4,8.8-1.6,14.6c-3.7,7.2-5.2,18.8,0,27c3.5,5.5,2.3,10.1,0.9,15.5c-0.9,3.4-1.9,7.3-1.9,12
				c0,1.8,0.5,3.1,1.6,4.1c2.7,2.4,8.7,1.8,14.4,1.2c2.6-0.3,5.2-0.5,7.6-0.5c0.2,0,0.3,0.1,0.3,0.3c0,0.2-0.1,0.3-0.3,0.3
				c-2.3,0-5,0.3-7.5,0.5C295.1,250.9,292.5,251.2,290.1,251.2z"/>
			<path class="st16" d="M317.2,249.1h-11.4c-0.3,0-0.6,0.3-0.6,0.6v0.8c0,0.3,0.3,0.6,0.6,0.6h11.4c0.3,0,0.6-0.3,0.6-0.6v-0.8
				C317.8,249.3,317.6,249.1,317.2,249.1z"/>
		</g>
	</g>
</g>
<g id="Desk">
	<g>
		<g>
			<g>
				<path class="st9" d="M388.6,257.7H111.4c-1.8,0-3.3-1.5-3.3-3.3l0,0c0-1.8,1.5-3.3,3.3-3.3h277.3c1.8,0,3.3,1.5,3.3,3.3l0,0
					C392,256.2,390.5,257.7,388.6,257.7z"/>
				<path class="st18" d="M388.6,257.7h-64.9c-1.8,0-3.3-1.5-3.3-3.3l0,0c0-1.8,1.5-3.3,3.3-3.3h64.9c1.8,0,3.3,1.5,3.3,3.3l0,0
					C392,256.2,390.5,257.7,388.6,257.7z"/>
			</g>
			<g>
				<g>
					<polygon class="st11" points="385.6,414.6 392,414.6 384.6,257.7 375.8,257.7 					"/>
					<polygon class="st19" points="385.6,414.6 392,414.6 384.6,257.7 375.8,257.7 					"/>
				</g>
				<g>
					<polygon class="st11" points="326.8,414.6 320.4,414.6 327.8,257.7 336.6,257.7 					"/>
					<polygon class="st20" points="326.8,414.6 320.4,414.6 327.8,257.7 336.6,257.7 					"/>
				</g>
				<g>
					<polygon class="st11" points="173.2,414.6 179.6,414.6 172.2,257.7 163.4,257.7 					"/>
					<polygon class="st19" points="173.2,414.6 179.6,414.6 172.2,257.7 163.4,257.7 					"/>
				</g>
				<g>
					<polygon class="st11" points="114.4,414.6 108,414.6 115.4,257.7 124.2,257.7 					"/>
					<polygon class="st20" points="114.4,414.6 108,414.6 115.4,257.7 124.2,257.7 					"/>
				</g>
				<g>
					<rect x="117.2" y="266.1" class="st11" width="213.3" height="13.1"/>
					<rect x="117.2" y="266.1" class="st20" width="213.3" height="13.1"/>
				</g>
			</g>
		</g>
		<g>
			<g>
				<path class="st9" d="M152.3,242.2c-0.8,0-1.4,0.6-1.4,1.4v6.1c0,0.8,0.6,1.4,1.4,1.4h45.4c0.3,0,0.5-0.2,0.5-0.5v-7.9
					c0-0.3-0.2-0.5-0.5-0.5H152.3z"/>
				<path class="st10" d="M198.1,243.1h-19c-0.4,0-0.8,0.4-0.8,0.8v5.5c0,0.4,0.4,0.8,0.8,0.8h19V243.1z"/>
				<g>
					<path class="st9" d="M176,242.2h-45.8c-0.8,0-1.4,0.6-1.4,1.4v6.1c0,0.8,0.6,1.4,1.4,1.4H176c0.8,0,1.4-0.6,1.4-1.4v-6.1
						C177.4,242.8,176.8,242.2,176,242.2z"/>
					<path class="st15" d="M176,242.2h-45.8c-0.8,0-1.4,0.6-1.4,1.4v6.1c0,0.8,0.6,1.4,1.4,1.4H176c0.8,0,1.4-0.6,1.4-1.4v-6.1
						C177.4,242.8,176.8,242.2,176,242.2z"/>
					<path class="st21" d="M153.5,242.2h-6.9c-0.3,0-0.6,0.3-0.6,0.6v7.7c0,0.3,0.3,0.6,0.6,0.6h6.9c0.3,0,0.6-0.3,0.6-0.6v-7.7
						C154.1,242.5,153.8,242.2,153.5,242.2z"/>
					<path class="st21" d="M163.6,242.2h-6.9c-0.3,0-0.6,0.3-0.6,0.6v7.7c0,0.3,0.3,0.6,0.6,0.6h6.9c0.3,0,0.6-0.3,0.6-0.6v-7.7
						C164.1,242.5,163.9,242.2,163.6,242.2z"/>
				</g>
			</g>
			<g>
				<path class="st9" d="M144.1,231.3c-0.8,0-1.4,0.6-1.4,1.4v8.1c0,0.8,0.6,1.4,1.4,1.4h49.1c0.3,0,0.5-0.2,0.5-0.5v-10
					c0-0.3-0.2-0.5-0.5-0.5H144.1z"/>
				<path class="st10" d="M193.7,232.2H171c-0.4,0-0.8,0.4-0.8,0.8v7.6c0,0.4,0.4,0.8,0.8,0.8h22.7V232.2z"/>
				<g>
					<path class="st9" d="M167.8,231.3h-38.5c-0.8,0-1.4,0.6-1.4,1.4v8.1c0,0.8,0.6,1.4,1.4,1.4h38.5c0.8,0,1.4-0.6,1.4-1.4v-8.1
						C169.2,232,168.6,231.3,167.8,231.3z"/>
					<path class="st20" d="M167.8,231.3h-38.5c-0.8,0-1.4,0.6-1.4,1.4v8.1c0,0.8,0.6,1.4,1.4,1.4h38.5c0.8,0,1.4-0.6,1.4-1.4v-8.1
						C169.2,232,168.6,231.3,167.8,231.3z"/>
					<path class="st22" d="M164.2,233.5H136c-0.5,0-0.9,0.4-0.9,0.9v4.9c0,0.5,0.4,0.9,0.9,0.9h28.2c0.5,0,0.9-0.4,0.9-0.9v-4.9
						C165.1,233.9,164.7,233.5,164.2,233.5z"/>
				</g>
			</g>
			<g>
				<path class="st9" d="M158.5,226.1c-0.8,0-1.4,0.4-1.4,0.8v3.6c0,0.5,0.6,0.8,1.4,0.8h45.4c0.3,0,0.5-0.1,0.5-0.3v-4.7
					c0-0.1-0.2-0.3-0.5-0.3H158.5z"/>
				<path class="st10" d="M204.4,226.6h-19.2c-0.3,0-0.6,0.3-0.6,0.6v3c0,0.3,0.3,0.6,0.6,0.6h19.2V226.6z"/>
				<g>
					<path class="st9" d="M182.6,226.1h-46.5c-0.6,0-1.1,0.5-1.1,1.1v3.1c0,0.6,0.5,1.1,1.1,1.1h46.5c0.6,0,1.1-0.5,1.1-1.1v-3.1
						C183.7,226.6,183.2,226.1,182.6,226.1z"/>
					<path class="st15" d="M182.6,226.1h-46.5c-0.6,0-1.1,0.5-1.1,1.1v3.1c0,0.6,0.5,1.1,1.1,1.1h46.5c0.6,0,1.1-0.5,1.1-1.1v-3.1
						C183.7,226.6,183.2,226.1,182.6,226.1z"/>
					<path class="st21" d="M142,226.1h-1.5c-0.1,0-0.2,0.1-0.2,0.2v4.8c0,0.1,0.1,0.2,0.2,0.2h1.5c0.1,0,0.2-0.1,0.2-0.2v-4.8
						C142.2,226.2,142.1,226.1,142,226.1z"/>
					<path class="st21" d="M179.7,226.1h-1.4c-0.1,0-0.2,0.1-0.2,0.2v4.8c0,0.1,0.1,0.2,0.2,0.2h1.4c0.1,0,0.2-0.1,0.2-0.2v-4.8
						C179.9,226.2,179.8,226.1,179.7,226.1z"/>
				</g>
			</g>
			<g>
				<path class="st9" d="M150.3,218.6c-0.8,0-1.4,0.4-1.4,0.8v5.9c0,0.5,0.6,0.8,1.4,0.8h49.1c0.3,0,0.5-0.1,0.5-0.3v-7
					c0-0.1-0.2-0.3-0.5-0.3H150.3z"/>
				<path class="st10" d="M199.9,219.1H177c-0.3,0-0.6,0.3-0.6,0.6v5.3c0,0.3,0.3,0.6,0.6,0.6h22.9V219.1z"/>
				<g>
					<path class="st9" d="M174.4,218.6h-39.2c-0.6,0-1.1,0.5-1.1,1.1v5.4c0,0.6,0.5,1.1,1.1,1.1h39.2c0.6,0,1.1-0.5,1.1-1.1v-5.4
						C175.5,219,175,218.6,174.4,218.6z"/>
					<path class="st23" d="M174.4,218.6h-39.2c-0.6,0-1.1,0.5-1.1,1.1v5.4c0,0.6,0.5,1.1,1.1,1.1h39.2c0.6,0,1.1-0.5,1.1-1.1v-5.4
						C175.5,219,175,218.6,174.4,218.6z"/>
				</g>
			</g>
		</g>
		<path class="st16" d="M259.9,249.4h-41.3c-0.5,0-0.8,0.4-0.8,0.8l0,0c0,0.5,0.4,0.8,0.8,0.8h41.3c0.5,0,0.8-0.4,0.8-0.8l0,0
			C260.8,249.8,260.4,249.4,259.9,249.4z"/>
		<g>
			<polygon class="st11" points="340.7,247.4 367.8,247.4 370.2,251 338.2,251 			"/>
			<path d="M382.5,186.8c0,2-1.6,3.6-3.6,3.6c-2,0-3.6-1.6-3.6-3.6c0-2,1.6-3.6,3.6-3.6C380.9,183.2,382.5,184.8,382.5,186.8z"/>
			<path class="st11" d="M355.1,249.8c-0.1,0-0.3,0-0.4-0.1c-0.6-0.2-0.9-0.9-0.6-1.5l26.1-61.8c0.2-0.6,0.9-0.9,1.5-0.6
				c0.6,0.2,0.9,0.9,0.6,1.5l-26.1,61.8C356,249.6,355.6,249.8,355.1,249.8z"/>
			<path class="st11" d="M381.2,188c-0.2,0-0.5-0.1-0.7-0.2l-47.5-35.6c-0.5-0.4-0.6-1.1-0.2-1.6c0.4-0.5,1.1-0.6,1.6-0.2l47.5,35.6
				c0.5,0.4,0.6,1.1,0.2,1.6C381.9,187.8,381.6,188,381.2,188z"/>
			<path class="st11" d="M384.9,186.8c0,2-1.6,3.6-3.6,3.6s-3.6-1.6-3.6-3.6c0-2,1.6-3.6,3.6-3.6S384.9,184.8,384.9,186.8z"/>
			<g>
				<circle class="st11" cx="333.8" cy="151.3" r="3.6"/>
				<g>
					<path class="st9" d="M328.7,167.9c-3.2,3.2-8.3,3.2-11.5,0c-3.2-3.2-3.2-8.3,0-11.5c3.2-3.2,8.3-3.2,11.5,0
						C331.9,159.5,331.9,164.7,328.7,167.9z"/>
					<path class="st24" d="M328.7,167.9c-3.2,3.2-8.3,3.2-11.5,0c-3.2-3.2-3.2-8.3,0-11.5c3.2-3.2,8.3-3.2,11.5,0
						C331.9,159.5,331.9,164.7,328.7,167.9z"/>
				</g>
				<path class="st11" d="M333.8,151.3c-6.8-6.8-17.9-6.8-24.7,0l24.7,24.7C340.6,169.2,340.6,158.1,333.8,151.3z"/>
			</g>
		</g>
		<g class="st15">
			<polygon class="st9" points="309.1,151.3 205.2,251.1 311.7,251.1 333.8,176 			"/>
			<polygon class="st24" points="309.1,151.3 205.2,251.1 311.7,251.1 333.8,176 			"/>
		</g>
	</g>
</g>
</svg>
